<svg xmlns="http://www.w3.org/2000/svg" xmlns:xlink="http://www.w3.org/1999/xlink" width="500" zoomAndPan="magnify" viewBox="0 0 375 374.999991" height="500" preserveAspectRatio="xMidYMid meet" version="1.0"><defs><g/><clipPath id="e7584839ef"><path d="M 37.5 37.5 L 337.5 37.5 L 337.5 337.5 L 37.5 337.5 Z M 37.5 37.5 " clip-rule="nonzero"/></clipPath><clipPath id="0ce79ce0fd"><path d="M 187.5 37.5 C 104.65625 37.5 37.5 104.65625 37.5 187.5 C 37.5 270.34375 104.65625 337.5 187.5 337.5 C 270.34375 337.5 337.5 270.34375 337.5 187.5 C 337.5 104.65625 270.34375 37.5 187.5 37.5 Z M 187.5 37.5 " clip-rule="nonzero"/></clipPath><clipPath id="b7a67d9b4e"><path d="M 76.941406 226.71875 L 108.703125 226.71875 L 108.703125 315.21875 L 76.941406 315.21875 Z M 76.941406 226.71875 " clip-rule="nonzero"/></clipPath><clipPath id="493de17606"><path d="M 268.148438 212.183594 L 340.214844 212.183594 L 340.214844 239.75 L 268.148438 239.75 Z M 268.148438 212.183594 " clip-rule="nonzero"/></clipPath></defs><g clip-path="url(#e7584839ef)"><g clip-path="url(#0ce79ce0fd)"><path fill="#272727" d="M 37.5 37.5 L 337.5 37.5 L 337.5 337.5 L 37.5 337.5 Z M 37.5 37.5 " fill-opacity="1" fill-rule="nonzero"/></g></g><g fill="#ffffff" fill-opacity="1"><g transform="translate(84.990269, 239.400325)"><g><path d="M 11.5625 -107.515625 L 104.546875 -107.515625 L 104.546875 -81.734375 L 46.09375 -81.734375 L 46.09375 -66.875 L 96.109375 -66.875 L 96.109375 -42.1875 L 46.09375 -42.1875 L 46.09375 -25.78125 L 105.640625 -25.78125 L 105.640625 0 L 11.5625 0 Z M 11.5625 -107.515625 "/></g></g></g><path stroke-linecap="butt" transform="matrix(0.494289, 0, 0, 0.494289, 119.961465, 78.262113)" fill="none" stroke-linejoin="miter" d="M 147.820163 108.49627 L 217.672707 108.49627 L 217.672707 270.35281 L 329.283465 270.35281 L 329.283465 325.996182 L 147.820163 325.996182 Z M 147.820163 108.49627 " stroke="#272727" stroke-width="45.050236" stroke-opacity="1" stroke-miterlimit="4"/><g fill="#ffffff" fill-opacity="1"><g transform="translate(181.469551, 239.400325)"><g><path d="M 11.5625 -107.515625 L 46.09375 -107.515625 L 46.09375 -27.5 L 101.265625 -27.5 L 101.265625 0 L 11.5625 0 Z M 11.5625 -107.515625 "/></g></g></g><g clip-path="url(#b7a67d9b4e)"><path fill="#ffffff" d="M 76.941406 226.71875 L 108.703125 226.71875 L 108.703125 315.171875 L 76.941406 315.171875 Z M 76.941406 226.71875 " fill-opacity="1" fill-rule="nonzero"/></g><g clip-path="url(#493de17606)"><path fill="#ffffff" d="M 268.148438 212.183594 L 340.183594 212.183594 L 340.183594 239.75 L 268.148438 239.75 Z M 268.148438 212.183594 " fill-opacity="1" fill-rule="nonzero"/></g><path stroke-linecap="butt" transform="matrix(0.75, -0.000000000000000372, 0.000000000000000372, 0.75, 76.942396, 116.714992)" fill="none" stroke-linejoin="miter" d="M -0.00132 1.999802 L 65.186184 1.999802 " stroke="#ffffff" stroke-width="4" stroke-opacity="1" stroke-miterlimit="4"/><g fill="#ffffff" fill-opacity="1"><g transform="translate(123.346133, 265.444142)"><g><path d="M 8.78125 -13.625 L 8.78125 -10.90625 L 4.09375 -10.90625 L 4.09375 -8.1875 L 8.59375 -8.1875 L 8.59375 -5.46875 L 4.09375 -5.46875 L 4.09375 -2.71875 L 8.78125 -2.71875 L 8.78125 0 L 0.984375 0 L 0.984375 -13.625 Z M 8.78125 -13.625 "/></g></g></g><g fill="#ffffff" fill-opacity="1"><g transform="translate(133.996939, 265.444142)"><g><path d="M 0.984375 -13.625 L 5.859375 -13.625 C 7.171875 -13.625 8.238281 -13.273438 9.0625 -12.578125 C 9.894531 -11.878906 10.3125 -10.878906 10.3125 -9.578125 C 10.3125 -8.578125 10.054688 -7.738281 9.546875 -7.0625 C 9.046875 -6.382812 8.367188 -5.90625 7.515625 -5.625 L 12.203125 0 L 8.265625 0 L 4.09375 -5.390625 L 4.09375 0 L 0.984375 0 Z M 4.09375 -7.578125 L 4.453125 -7.578125 C 4.742188 -7.578125 4.988281 -7.582031 5.1875 -7.59375 C 5.382812 -7.601562 5.609375 -7.640625 5.859375 -7.703125 C 6.117188 -7.773438 6.320312 -7.867188 6.46875 -7.984375 C 6.625 -8.109375 6.753906 -8.285156 6.859375 -8.515625 C 6.972656 -8.753906 7.03125 -9.035156 7.03125 -9.359375 C 7.03125 -9.691406 6.972656 -9.972656 6.859375 -10.203125 C 6.753906 -10.429688 6.625 -10.609375 6.46875 -10.734375 C 6.320312 -10.859375 6.117188 -10.953125 5.859375 -11.015625 C 5.609375 -11.078125 5.382812 -11.113281 5.1875 -11.125 C 4.988281 -11.132812 4.742188 -11.140625 4.453125 -11.140625 L 4.09375 -11.140625 Z M 4.09375 -7.578125 "/></g></g></g><g fill="#ffffff" fill-opacity="1"><g transform="translate(146.893336, 265.444142)"><g><path d="M 4.09375 -13.625 L 4.09375 0 L 0.984375 0 L 0.984375 -13.625 Z M 4.09375 -13.625 "/></g></g></g><g fill="#ffffff" fill-opacity="1"><g transform="translate(153.052967, 265.444142)"><g><path d="M 8.234375 -2.8125 C 8.710938 -2.8125 9.175781 -2.878906 9.625 -3.015625 C 10.070312 -3.160156 10.398438 -3.300781 10.609375 -3.4375 L 10.921875 -3.65625 L 12.234375 -1 C 12.191406 -0.96875 12.128906 -0.925781 12.046875 -0.875 C 11.972656 -0.820312 11.796875 -0.71875 11.515625 -0.5625 C 11.234375 -0.414062 10.929688 -0.285156 10.609375 -0.171875 C 10.296875 -0.0664062 9.878906 0.0234375 9.359375 0.109375 C 8.847656 0.203125 8.316406 0.25 7.765625 0.25 C 6.492188 0.25 5.289062 -0.0625 4.15625 -0.6875 C 3.019531 -1.3125 2.101562 -2.164062 1.40625 -3.25 C 0.71875 -4.34375 0.375 -5.519531 0.375 -6.78125 C 0.375 -7.738281 0.578125 -8.660156 0.984375 -9.546875 C 1.398438 -10.429688 1.945312 -11.1875 2.625 -11.8125 C 3.300781 -12.4375 4.085938 -12.9375 4.984375 -13.3125 C 5.890625 -13.6875 6.816406 -13.875 7.765625 -13.875 C 8.640625 -13.875 9.445312 -13.769531 10.1875 -13.5625 C 10.9375 -13.351562 11.46875 -13.144531 11.78125 -12.9375 L 12.234375 -12.625 L 10.921875 -9.96875 C 10.835938 -10.039062 10.71875 -10.125 10.5625 -10.21875 C 10.414062 -10.3125 10.109375 -10.429688 9.640625 -10.578125 C 9.179688 -10.734375 8.710938 -10.8125 8.234375 -10.8125 C 7.492188 -10.8125 6.820312 -10.691406 6.21875 -10.453125 C 5.625 -10.210938 5.15625 -9.894531 4.8125 -9.5 C 4.46875 -9.101562 4.203125 -8.675781 4.015625 -8.21875 C 3.835938 -7.757812 3.75 -7.296875 3.75 -6.828125 C 3.75 -5.785156 4.132812 -4.851562 4.90625 -4.03125 C 5.6875 -3.21875 6.796875 -2.8125 8.234375 -2.8125 Z M 8.234375 -2.8125 "/></g></g></g><g fill="#ffffff" fill-opacity="1"><g transform="translate(166.560296, 265.444142)"><g><path d="M 13.390625 0 L 9.109375 0 L 4.09375 -5.78125 L 4.09375 0 L 0.984375 0 L 0.984375 -13.625 L 4.09375 -13.625 L 4.09375 -8.0625 L 8.765625 -13.625 L 12.53125 -13.625 L 7.046875 -7.171875 Z M 13.390625 0 "/></g></g></g><g fill="#ffffff" fill-opacity="1"><g transform="translate(180.629014, 265.444142)"><g/></g></g><g fill="#ffffff" fill-opacity="1"><g transform="translate(186.210738, 265.444142)"><g><path d="M 4.09375 -13.625 L 4.09375 -2.71875 L 8.78125 -2.71875 L 8.78125 0 L 0.984375 0 L 0.984375 -13.625 Z M 4.09375 -13.625 "/></g></g></g><g fill="#ffffff" fill-opacity="1"><g transform="translate(196.613869, 265.444142)"><g><path d="M 7.90625 -13.625 L 13.40625 0 L 10.078125 0 L 9.0625 -2.71875 L 3.875 -2.71875 L 2.875 0 L -0.46875 0 L 5.03125 -13.625 Z M 8.015625 -5.453125 L 6.484375 -9.40625 L 6.453125 -9.40625 L 4.9375 -5.453125 Z M 8.015625 -5.453125 "/></g></g></g><g fill="#ffffff" fill-opacity="1"><g transform="translate(210.633058, 265.444142)"><g><path d="M 6.015625 -13.875 C 6.753906 -13.875 7.472656 -13.765625 8.171875 -13.546875 C 8.878906 -13.335938 9.40625 -13.128906 9.75 -12.921875 L 10.234375 -12.578125 L 8.984375 -10.109375 C 8.878906 -10.171875 8.738281 -10.253906 8.5625 -10.359375 C 8.394531 -10.460938 8.066406 -10.601562 7.578125 -10.78125 C 7.097656 -10.957031 6.644531 -11.046875 6.21875 -11.046875 C 5.707031 -11.046875 5.3125 -10.9375 5.03125 -10.71875 C 4.75 -10.5 4.609375 -10.203125 4.609375 -9.828125 C 4.609375 -9.640625 4.671875 -9.460938 4.796875 -9.296875 C 4.929688 -9.140625 5.160156 -8.96875 5.484375 -8.78125 C 5.804688 -8.601562 6.085938 -8.457031 6.328125 -8.34375 C 6.566406 -8.238281 6.941406 -8.078125 7.453125 -7.859375 C 8.328125 -7.484375 9.078125 -6.972656 9.703125 -6.328125 C 10.328125 -5.691406 10.640625 -4.960938 10.640625 -4.140625 C 10.640625 -3.359375 10.5 -2.675781 10.21875 -2.09375 C 9.9375 -1.507812 9.550781 -1.050781 9.0625 -0.71875 C 8.570312 -0.394531 8.03125 -0.15625 7.4375 0 C 6.84375 0.164062 6.195312 0.25 5.5 0.25 C 4.90625 0.25 4.320312 0.1875 3.75 0.0625 C 3.175781 -0.0507812 2.695312 -0.195312 2.3125 -0.375 C 1.925781 -0.5625 1.578125 -0.742188 1.265625 -0.921875 C 0.960938 -1.097656 0.738281 -1.25 0.59375 -1.375 L 0.375 -1.546875 L 1.9375 -4.15625 C 2.0625 -4.050781 2.238281 -3.910156 2.46875 -3.734375 C 2.707031 -3.566406 3.117188 -3.335938 3.703125 -3.046875 C 4.296875 -2.765625 4.816406 -2.625 5.265625 -2.625 C 6.578125 -2.625 7.234375 -3.070312 7.234375 -3.96875 C 7.234375 -4.15625 7.1875 -4.328125 7.09375 -4.484375 C 7 -4.640625 6.832031 -4.796875 6.59375 -4.953125 C 6.363281 -5.117188 6.15625 -5.25 5.96875 -5.34375 C 5.789062 -5.4375 5.492188 -5.578125 5.078125 -5.765625 C 4.660156 -5.960938 4.351562 -6.109375 4.15625 -6.203125 C 3.332031 -6.617188 2.691406 -7.128906 2.234375 -7.734375 C 1.785156 -8.347656 1.5625 -9.007812 1.5625 -9.71875 C 1.5625 -10.9375 2.015625 -11.929688 2.921875 -12.703125 C 3.828125 -13.484375 4.859375 -13.875 6.015625 -13.875 Z M 6.015625 -13.875 "/></g></g></g><g fill="#ffffff" fill-opacity="1"><g transform="translate(222.802939, 265.444142)"><g><path d="M 4.09375 -13.625 L 4.09375 -2.71875 L 8.78125 -2.71875 L 8.78125 0 L 0.984375 0 L 0.984375 -13.625 Z M 4.09375 -13.625 "/></g></g></g><g fill="#ffffff" fill-opacity="1"><g transform="translate(233.206075, 265.444142)"><g><path d="M 11.46875 -13.625 L 11.46875 -4.84375 C 11.46875 -3.164062 11.015625 -1.894531 10.109375 -1.03125 C 9.203125 -0.175781 7.878906 0.25 6.140625 0.25 C 4.398438 0.25 3.078125 -0.175781 2.171875 -1.03125 C 1.273438 -1.894531 0.828125 -3.164062 0.828125 -4.84375 L 0.828125 -13.625 L 3.9375 -13.625 L 3.9375 -5.75 C 3.9375 -4.644531 4.109375 -3.878906 4.453125 -3.453125 C 4.796875 -3.023438 5.359375 -2.8125 6.140625 -2.8125 C 6.921875 -2.8125 7.484375 -3.023438 7.828125 -3.453125 C 8.179688 -3.878906 8.359375 -4.644531 8.359375 -5.75 L 8.359375 -13.625 Z M 11.46875 -13.625 "/></g></g></g><g fill="#ffffff" fill-opacity="1"><g transform="translate(246.564809, 265.444142)"><g><path d="M 4.09375 -13.625 L 4.09375 0 L 0.984375 0 L 0.984375 -13.625 Z M 4.09375 -13.625 "/></g></g></g><g fill="#ffffff" fill-opacity="1"><g transform="translate(252.724442, 265.444142)"><g><path d="M 6.015625 -13.875 C 6.753906 -13.875 7.472656 -13.765625 8.171875 -13.546875 C 8.878906 -13.335938 9.40625 -13.128906 9.75 -12.921875 L 10.234375 -12.578125 L 8.984375 -10.109375 C 8.878906 -10.171875 8.738281 -10.253906 8.5625 -10.359375 C 8.394531 -10.460938 8.066406 -10.601562 7.578125 -10.78125 C 7.097656 -10.957031 6.644531 -11.046875 6.21875 -11.046875 C 5.707031 -11.046875 5.3125 -10.9375 5.03125 -10.71875 C 4.75 -10.5 4.609375 -10.203125 4.609375 -9.828125 C 4.609375 -9.640625 4.671875 -9.460938 4.796875 -9.296875 C 4.929688 -9.140625 5.160156 -8.96875 5.484375 -8.78125 C 5.804688 -8.601562 6.085938 -8.457031 6.328125 -8.34375 C 6.566406 -8.238281 6.941406 -8.078125 7.453125 -7.859375 C 8.328125 -7.484375 9.078125 -6.972656 9.703125 -6.328125 C 10.328125 -5.691406 10.640625 -4.960938 10.640625 -4.140625 C 10.640625 -3.359375 10.5 -2.675781 10.21875 -2.09375 C 9.9375 -1.507812 9.550781 -1.050781 9.0625 -0.71875 C 8.570312 -0.394531 8.03125 -0.15625 7.4375 0 C 6.84375 0.164062 6.195312 0.25 5.5 0.25 C 4.90625 0.25 4.320312 0.1875 3.75 0.0625 C 3.175781 -0.0507812 2.695312 -0.195312 2.3125 -0.375 C 1.925781 -0.5625 1.578125 -0.742188 1.265625 -0.921875 C 0.960938 -1.097656 0.738281 -1.25 0.59375 -1.375 L 0.375 -1.546875 L 1.9375 -4.15625 C 2.0625 -4.050781 2.238281 -3.910156 2.46875 -3.734375 C 2.707031 -3.566406 3.117188 -3.335938 3.703125 -3.046875 C 4.296875 -2.765625 4.816406 -2.625 5.265625 -2.625 C 6.578125 -2.625 7.234375 -3.070312 7.234375 -3.96875 C 7.234375 -4.15625 7.1875 -4.328125 7.09375 -4.484375 C 7 -4.640625 6.832031 -4.796875 6.59375 -4.953125 C 6.363281 -5.117188 6.15625 -5.25 5.96875 -5.34375 C 5.789062 -5.4375 5.492188 -5.578125 5.078125 -5.765625 C 4.660156 -5.960938 4.351562 -6.109375 4.15625 -6.203125 C 3.332031 -6.617188 2.691406 -7.128906 2.234375 -7.734375 C 1.785156 -8.347656 1.5625 -9.007812 1.5625 -9.71875 C 1.5625 -10.9375 2.015625 -11.929688 2.921875 -12.703125 C 3.828125 -13.484375 4.859375 -13.875 6.015625 -13.875 Z M 6.015625 -13.875 "/></g></g></g><g fill="#ffffff" fill-opacity="1"><g transform="translate(264.894329, 265.444142)"><g><path d="M 7.90625 -13.625 L 13.40625 0 L 10.078125 0 L 9.0625 -2.71875 L 3.875 -2.71875 L 2.875 0 L -0.46875 0 L 5.03125 -13.625 Z M 8.015625 -5.453125 L 6.484375 -9.40625 L 6.453125 -9.40625 L 4.9375 -5.453125 Z M 8.015625 -5.453125 "/></g></g></g><g fill="#ffffff" fill-opacity="1"><g transform="translate(141.033071, 279.647357)"><g><path d="M 2.5 0 L 1.625 0 L 0.3125 -5.71875 L 0.96875 -5.71875 L 2.046875 -0.984375 L 2.140625 -0.984375 L 3.421875 -5.71875 L 4.046875 -5.71875 L 5.328125 -0.984375 L 5.421875 -0.984375 L 6.5 -5.71875 L 7.15625 -5.71875 L 5.84375 0 L 4.96875 0 L 3.765625 -4.328125 L 3.6875 -4.328125 Z M 2.5 0 "/></g></g></g><g fill="#ffffff" fill-opacity="1"><g transform="translate(153.218074, 279.647357)"><g><path d="M 1.53125 -2.6875 L 1.53125 -0.5625 L 4.453125 -0.5625 L 4.453125 0 L 0.859375 0 L 0.859375 -5.71875 L 4.390625 -5.71875 L 4.390625 -5.15625 L 1.53125 -5.15625 L 1.53125 -3.25 L 4.046875 -3.25 L 4.046875 -2.6875 Z M 1.53125 -2.6875 "/></g></g></g><g fill="#ffffff" fill-opacity="1"><g transform="translate(162.770269, 279.647357)"><g><path d="M 0.859375 0 L 0.859375 -5.71875 L 3.03125 -5.71875 C 3.382812 -5.71875 3.679688 -5.660156 3.921875 -5.546875 C 4.171875 -5.429688 4.351562 -5.269531 4.46875 -5.0625 C 4.59375 -4.851562 4.65625 -4.609375 4.65625 -4.328125 C 4.65625 -4.078125 4.585938 -3.851562 4.453125 -3.65625 C 4.328125 -3.457031 4.140625 -3.300781 3.890625 -3.1875 L 3.890625 -3.109375 C 4.265625 -3.015625 4.550781 -2.84375 4.75 -2.59375 C 4.945312 -2.34375 5.046875 -2.03125 5.046875 -1.65625 C 5.046875 -1.125 4.890625 -0.710938 4.578125 -0.421875 C 4.265625 -0.140625 3.800781 0 3.1875 0 Z M 3 -3.3125 C 3.3125 -3.3125 3.554688 -3.394531 3.734375 -3.5625 C 3.910156 -3.726562 4 -3.957031 4 -4.25 C 4 -4.550781 3.910156 -4.773438 3.734375 -4.921875 C 3.566406 -5.078125 3.320312 -5.15625 3 -5.15625 L 1.53125 -5.15625 L 1.53125 -3.3125 Z M 3.140625 -0.5625 C 3.953125 -0.5625 4.359375 -0.925781 4.359375 -1.65625 C 4.359375 -2.394531 3.953125 -2.765625 3.140625 -2.765625 L 1.53125 -2.765625 L 1.53125 -0.5625 Z M 3.140625 -0.5625 "/></g></g></g><g fill="#ffffff" fill-opacity="1"><g transform="translate(172.994339, 279.647357)"><g/></g></g><g fill="#ffffff" fill-opacity="1"><g transform="translate(179.68326, 279.647357)"><g><path d="M 2.71875 -5.71875 C 3.289062 -5.71875 3.785156 -5.613281 4.203125 -5.40625 C 4.617188 -5.195312 4.9375 -4.878906 5.15625 -4.453125 C 5.382812 -4.023438 5.5 -3.492188 5.5 -2.859375 C 5.5 -2.210938 5.382812 -1.675781 5.15625 -1.25 C 4.9375 -0.832031 4.617188 -0.519531 4.203125 -0.3125 C 3.785156 -0.101562 3.289062 0 2.71875 0 L 0.859375 0 L 0.859375 -5.71875 Z M 2.640625 -0.578125 C 3.117188 -0.578125 3.515625 -0.648438 3.828125 -0.796875 C 4.140625 -0.941406 4.375 -1.179688 4.53125 -1.515625 C 4.695312 -1.859375 4.78125 -2.304688 4.78125 -2.859375 C 4.78125 -3.410156 4.695312 -3.851562 4.53125 -4.1875 C 4.375 -4.53125 4.140625 -4.773438 3.828125 -4.921875 C 3.515625 -5.066406 3.117188 -5.140625 2.640625 -5.140625 L 1.53125 -5.140625 L 1.53125 -0.578125 Z M 2.640625 -0.578125 "/></g></g></g><g fill="#ffffff" fill-opacity="1"><g transform="translate(190.481544, 279.647357)"><g><path d="M 1.53125 -2.6875 L 1.53125 -0.5625 L 4.453125 -0.5625 L 4.453125 0 L 0.859375 0 L 0.859375 -5.71875 L 4.390625 -5.71875 L 4.390625 -5.15625 L 1.53125 -5.15625 L 1.53125 -3.25 L 4.046875 -3.25 L 4.046875 -2.6875 Z M 1.53125 -2.6875 "/></g></g></g><g fill="#ffffff" fill-opacity="1"><g transform="translate(200.033743, 279.647357)"><g><path d="M 3.109375 0 L 2.234375 0 L 0.25 -5.71875 L 0.96875 -5.71875 L 2.640625 -0.84375 L 2.734375 -0.84375 L 4.390625 -5.71875 L 5.09375 -5.71875 Z M 3.109375 0 "/></g></g></g><g fill="#ffffff" fill-opacity="1"><g transform="translate(210.097659, 279.647357)"><g><path d="M 1.53125 -2.6875 L 1.53125 -0.5625 L 4.453125 -0.5625 L 4.453125 0 L 0.859375 0 L 0.859375 -5.71875 L 4.390625 -5.71875 L 4.390625 -5.15625 L 1.53125 -5.15625 L 1.53125 -3.25 L 4.046875 -3.25 L 4.046875 -2.6875 Z M 1.53125 -2.6875 "/></g></g></g><g fill="#ffffff" fill-opacity="1"><g transform="translate(219.649857, 279.647357)"><g><path d="M 1.53125 -5.71875 L 1.53125 -0.5625 L 4.28125 -0.5625 L 4.28125 0 L 0.859375 0 L 0.859375 -5.71875 Z M 1.53125 -5.71875 "/></g></g></g><g fill="#ffffff" fill-opacity="1"><g transform="translate(228.905181, 279.647357)"><g><path d="M 3.140625 0.078125 C 2.640625 0.078125 2.195312 -0.0234375 1.8125 -0.234375 C 1.425781 -0.453125 1.125 -0.78125 0.90625 -1.21875 C 0.6875 -1.65625 0.578125 -2.203125 0.578125 -2.859375 C 0.578125 -3.515625 0.6875 -4.0625 0.90625 -4.5 C 1.125 -4.9375 1.425781 -5.257812 1.8125 -5.46875 C 2.195312 -5.6875 2.640625 -5.796875 3.140625 -5.796875 C 3.628906 -5.796875 4.066406 -5.6875 4.453125 -5.46875 C 4.835938 -5.257812 5.140625 -4.9375 5.359375 -4.5 C 5.585938 -4.0625 5.703125 -3.515625 5.703125 -2.859375 C 5.703125 -2.203125 5.585938 -1.65625 5.359375 -1.21875 C 5.140625 -0.78125 4.835938 -0.453125 4.453125 -0.234375 C 4.066406 -0.0234375 3.628906 0.078125 3.140625 0.078125 Z M 3.140625 -0.546875 C 3.734375 -0.546875 4.1875 -0.726562 4.5 -1.09375 C 4.820312 -1.46875 4.984375 -2.054688 4.984375 -2.859375 C 4.984375 -3.660156 4.820312 -4.242188 4.5 -4.609375 C 4.1875 -4.984375 3.734375 -5.171875 3.140625 -5.171875 C 1.910156 -5.171875 1.296875 -4.398438 1.296875 -2.859375 C 1.296875 -1.316406 1.910156 -0.546875 3.140625 -0.546875 Z M 3.140625 -0.546875 "/></g></g></g><g fill="#ffffff" fill-opacity="1"><g transform="translate(239.898778, 279.647357)"><g><path d="M 2.90625 -5.71875 C 3.300781 -5.71875 3.640625 -5.644531 3.921875 -5.5 C 4.203125 -5.363281 4.414062 -5.160156 4.5625 -4.890625 C 4.707031 -4.628906 4.78125 -4.320312 4.78125 -3.96875 C 4.78125 -3.613281 4.707031 -3.304688 4.5625 -3.046875 C 4.414062 -2.785156 4.203125 -2.582031 3.921875 -2.4375 C 3.640625 -2.300781 3.300781 -2.234375 2.90625 -2.234375 L 1.53125 -2.234375 L 1.53125 0 L 0.859375 0 L 0.859375 -5.71875 Z M 2.890625 -2.8125 C 3.679688 -2.8125 4.078125 -3.195312 4.078125 -3.96875 C 4.078125 -4.75 3.679688 -5.140625 2.890625 -5.140625 L 1.53125 -5.140625 L 1.53125 -2.8125 Z M 2.890625 -2.8125 "/></g></g></g><g fill="#ffffff" fill-opacity="1"><g transform="translate(249.833783, 279.647357)"><g><path d="M 1.53125 -2.6875 L 1.53125 -0.5625 L 4.453125 -0.5625 L 4.453125 0 L 0.859375 0 L 0.859375 -5.71875 L 4.390625 -5.71875 L 4.390625 -5.15625 L 1.53125 -5.15625 L 1.53125 -3.25 L 4.046875 -3.25 L 4.046875 -2.6875 Z M 1.53125 -2.6875 "/></g></g></g><g fill="#ffffff" fill-opacity="1"><g transform="translate(259.385976, 279.647357)"><g><path d="M 0.859375 0 L 0.859375 -5.71875 L 2.9375 -5.71875 C 3.320312 -5.71875 3.644531 -5.648438 3.90625 -5.515625 C 4.164062 -5.390625 4.359375 -5.210938 4.484375 -4.984375 C 4.617188 -4.753906 4.6875 -4.484375 4.6875 -4.171875 C 4.6875 -3.816406 4.597656 -3.523438 4.421875 -3.296875 C 4.242188 -3.066406 3.96875 -2.894531 3.59375 -2.78125 L 3.59375 -2.6875 C 3.78125 -2.613281 3.929688 -2.5 4.046875 -2.34375 C 4.160156 -2.1875 4.269531 -1.957031 4.375 -1.65625 L 4.890625 0 L 4.203125 0 L 3.640625 -1.75 C 3.566406 -1.957031 3.484375 -2.117188 3.390625 -2.234375 C 3.304688 -2.347656 3.195312 -2.429688 3.0625 -2.484375 C 2.925781 -2.535156 2.753906 -2.5625 2.546875 -2.5625 L 1.53125 -2.5625 L 1.53125 0 Z M 2.921875 -3.140625 C 3.273438 -3.140625 3.539062 -3.21875 3.71875 -3.375 C 3.894531 -3.539062 3.984375 -3.796875 3.984375 -4.140625 C 3.984375 -4.472656 3.894531 -4.722656 3.71875 -4.890625 C 3.539062 -5.054688 3.273438 -5.140625 2.921875 -5.140625 L 1.53125 -5.140625 L 1.53125 -3.140625 Z M 2.921875 -3.140625 "/></g></g></g></svg>